<svg xmlns="http://www.w3.org/2000/svg" xmlns:xlink="http://www.w3.org/1999/xlink" version="1.1" id="Layer_1" width="32" height="32" viewBox="0 0 32 32" overflow="visible" enable-background="new 0 0 32 32" xml:space="preserve">
<path fill="#000" d="M32,28c0,2.209-1.791,4-4,4H4c-2.209,0-4-1.791-4-4V4c0-2.209,1.791-4,4-4h24c2.209,0,4,1.791,4,4V28z"/>
<g>
	<path fill="#FFFFFF" d="M4.322,6.07C5.22,6.937,6.078,7.814,6.911,8.698c0.209,0.221,0.416,0.443,0.621,0.665   c0.204,0.222,0.417,0.442,0.613,0.666c0.201,0.223,0.388,0.45,0.569,0.679c0.181,0.228,0.35,0.459,0.523,0.69   c0.341,0.462,0.683,0.923,1.097,1.366c0.207,0.221,0.428,0.439,0.664,0.652c0.118,0.107,0.243,0.212,0.365,0.318   c0.065,0.053,0.188,0.089,0.363,0.112c0.173,0.023,0.402,0.031,0.605,0.047c0.214,0.012,0.399,0.033,0.515,0.071   c0.122,0.037,0.169,0.094,0.178,0.161c0.014,0.065-0.009,0.141-0.061,0.223c-0.057,0.084-0.135,0.173-0.242,0.271l-0.309,0.288   c-0.047,0.046-0.094,0.094-0.13,0.138c-0.042,0.046-0.071,0.087-0.096,0.128c-0.111,0.167-0.032,0.285-0.011,0.417l0.358,1.563   c0.494,2.077,1.046,4.138,1.675,6.178c0.312,1.023,0.646,2.039,1.005,3.048c0.361,1.009,0.738,2.013,1.181,2.999l-0.093,0.024   c-0.563-0.954-1.193-1.892-1.837-2.825c-0.647-0.934-1.318-1.86-2.012-2.781c-1.385-1.842-2.844-3.666-4.362-5.473l-1.151-1.352   c-0.104-0.111-0.151-0.236-0.387-0.313c-0.056-0.02-0.118-0.037-0.19-0.052c-0.068-0.017-0.146-0.03-0.226-0.046l-0.497-0.076   c-0.17-0.023-0.311-0.057-0.43-0.093c-0.114-0.038-0.2-0.085-0.25-0.14c-0.054-0.057-0.07-0.121-0.011-0.206   c0.053-0.083,0.175-0.184,0.326-0.292c0.141-0.106,0.307-0.219,0.417-0.317c0.113-0.098,0.172-0.183,0.175-0.253   c-0.003-0.137-0.004-0.274-0.013-0.41c-0.016-0.272-0.045-0.54-0.091-0.804c-0.089-0.529-0.25-1.039-0.412-1.547   c-0.078-0.256-0.161-0.509-0.231-0.767c-0.07-0.256-0.134-0.515-0.186-0.779c-0.055-0.26-0.093-0.526-0.142-0.79   C4.744,9.821,4.699,9.557,4.657,9.292C4.485,8.234,4.336,7.169,4.229,6.094L4.322,6.07z"/>
	<path fill="#FFFFFF" d="M16.498,2.215C16.653,3.402,16.821,4.478,17,5.611c0.089,0.566,0.172,1.132,0.266,1.698l0.281,1.697   l0.281,1.699c0.05,0.283,0.107,0.566,0.17,0.85c0.061,0.282,0.134,0.566,0.205,0.849c0.146,0.566,0.322,1.132,0.483,1.698   c0.163,0.566,0.326,1.133,0.444,1.698c0.122,0.567,0.199,1.133,0.233,1.699c0.016,0.282,0.02,0.565,0.016,0.85   c-0.008,0.282-0.021,0.564-0.048,0.85c-0.086,1.132-0.232,2.264-0.449,3.396c-0.216,1.132-0.504,2.265-0.881,3.396   c-0.188,0.566-0.401,1.078-0.645,1.643c-0.252,0.565-0.513,1.168-0.86,1.645h-0.1c-0.347-0.477-0.608-1.079-0.859-1.645   c-0.243-0.564-0.456-1.103-0.645-1.67c-0.377-1.131-0.666-2.25-0.881-3.381c-0.217-1.134-0.364-2.26-0.451-3.393   c-0.026-0.281-0.04-0.563-0.046-0.846c-0.005-0.282,0-0.563,0.016-0.848c0.034-0.564,0.111-1.133,0.232-1.697   c0.118-0.566,0.282-1.132,0.446-1.698c0.16-0.566,0.335-1.132,0.482-1.699c0.072-0.283,0.145-0.566,0.207-0.849   c0.062-0.284,0.121-0.566,0.169-0.85l0.282-1.699l0.28-1.698c0.095-0.566,0.178-1.131,0.268-1.697   c0.177-1.133,0.345-2.208,0.501-3.396H16.498z"/>
	<path fill="#FFFFFF" d="M28.566,6.094c-0.107,1.075-0.256,2.14-0.429,3.198c-0.043,0.265-0.088,0.529-0.134,0.793   c-0.047,0.263-0.087,0.529-0.142,0.79c-0.051,0.264-0.115,0.522-0.186,0.779c-0.069,0.258-0.153,0.512-0.231,0.767   c-0.162,0.509-0.322,1.018-0.412,1.547c-0.045,0.264-0.074,0.531-0.089,0.804c-0.01,0.136-0.01,0.273-0.015,0.411   c0.002,0.069,0.063,0.154,0.174,0.252c0.11,0.098,0.276,0.211,0.417,0.317c0.152,0.109,0.273,0.209,0.327,0.292   c0.059,0.084,0.042,0.149-0.01,0.204c-0.052,0.057-0.136,0.104-0.252,0.142c-0.119,0.036-0.259,0.069-0.429,0.093l-0.498,0.076   c-0.078,0.016-0.156,0.029-0.225,0.046c-0.072,0.015-0.133,0.032-0.19,0.052c-0.235,0.076-0.282,0.201-0.388,0.313l-1.15,1.352   c-1.519,1.807-2.978,3.631-4.363,5.473c-0.691,0.921-1.364,1.848-2.012,2.781c-0.644,0.934-1.273,1.871-1.837,2.825l-0.093-0.022   c0.442-0.988,0.82-1.993,1.18-3.002c0.358-1.008,0.694-2.023,1.006-3.047c0.628-2.04,1.181-4.101,1.674-6.178l0.358-1.562   c0.022-0.133,0.101-0.25-0.009-0.417c-0.025-0.041-0.055-0.082-0.096-0.128c-0.038-0.044-0.085-0.091-0.132-0.138l-0.307-0.288   c-0.108-0.098-0.186-0.187-0.243-0.271c-0.052-0.083-0.074-0.158-0.062-0.223c0.01-0.067,0.056-0.124,0.179-0.161   c0.115-0.038,0.301-0.059,0.516-0.071c0.202-0.016,0.432-0.024,0.604-0.047c0.176-0.023,0.299-0.059,0.363-0.112   c0.122-0.105,0.248-0.211,0.364-0.318c0.238-0.213,0.459-0.431,0.664-0.652c0.414-0.443,0.758-0.905,1.097-1.366   c0.175-0.231,0.343-0.462,0.524-0.69c0.182-0.229,0.367-0.456,0.569-0.679c0.196-0.224,0.407-0.443,0.612-0.666   c0.205-0.221,0.411-0.444,0.62-0.664c0.835-0.884,1.69-1.761,2.59-2.628L28.566,6.094z"/>
</g>
</svg>