<?xml version="1.0" encoding="utf-8"?>
<!-- Generator: Adobe Illustrator 12.0.0, SVG Export Plug-In . SVG Version: 6.00 Build 51448)  -->
<!DOCTYPE svg PUBLIC "-//W3C//DTD SVG 1.1//EN" "http://www.w3.org/Graphics/SVG/1.1/DTD/svg11.dtd" [
	<!ENTITY ns_svg "http://www.w3.org/2000/svg">
	<!ENTITY ns_xlink "http://www.w3.org/1999/xlink">
]>
<svg  version="1.1" id="Layer_1" xmlns="&ns_svg;" xmlns:xlink="&ns_xlink;" width="48.963" height="57.654"
	 viewBox="0 0 48.963 57.654" overflow="visible" enable-background="new 0 0 48.963 57.654" xml:space="preserve">
<g>
	<path fill="#FFFFFF" d="M24.571,57.394c0.863-2.031,1.591-4.091,2.292-6.158c0.721-2.141,1.396-4.288,2.024-6.453
		c0.277-0.956,0.547-1.917,0.809-2.868c-0.063,0.431-0.135,0.871-0.218,1.302c-0.43,2.4-1.016,4.811-1.77,7.21
		c-0.377,1.196-0.809,2.283-1.304,3.48c-0.504,1.206-1.025,2.48-1.727,3.487"/>
	<path fill="#FFFFFF" d="M24.679,57.394c0.701-1.007,1.223-2.281,1.727-3.487c0.495-1.197,0.927-2.284,1.304-3.48
		c0.754-2.399,1.34-4.81,1.77-7.21c0.083-0.431,0.155-0.871,0.218-1.302c0.935-3.391,1.78-6.806,2.563-10.24l0.719-3.309
		c0.045-0.279,0.198-0.53-0.026-0.881c-0.046-0.089-0.109-0.179-0.19-0.279c-0.072-0.09-0.17-0.188-0.261-0.288l-0.62-0.611
		c-0.215-0.206-0.368-0.396-0.484-0.575c-0.107-0.18-0.153-0.332-0.127-0.477c0.02-0.144,0.117-0.26,0.36-0.341
		c0.234-0.081,0.603-0.117,1.033-0.143c0.413-0.037,0.872-0.055,1.214-0.11c0.36-0.044,0.603-0.125,0.737-0.232
		c0.242-0.225,0.495-0.449,0.729-0.675c0.477-0.449,0.927-0.907,1.34-1.384c0.827-0.935,1.52-1.914,2.201-2.895
		c0.353-0.485,0.693-0.979,1.054-1.465c0.368-0.486,0.745-0.962,1.15-1.439c0.396-0.477,0.817-0.945,1.23-1.412
		c0.415-0.467,0.829-0.943,1.25-1.412c1.673-1.87,3.397-3.73,5.206-5.574l0.189,0.054c-0.217,2.284-0.514,4.541-0.865,6.779
		c-0.08,0.567-0.17,1.124-0.27,1.681c-0.088,0.566-0.168,1.124-0.277,1.681c-0.108,0.557-0.232,1.106-0.376,1.655
		c-0.146,0.539-0.308,1.079-0.47,1.618c-0.323,1.087-0.647,2.167-0.827,3.281c-0.09,0.565-0.153,1.133-0.181,1.708
		c-0.016,0.287-0.016,0.575-0.025,0.871c0,0.144,0.126,0.325,0.351,0.531c0.225,0.217,0.558,0.45,0.835,0.675
		c0.308,0.232,0.549,0.45,0.658,0.62c0.115,0.18,0.089,0.315-0.02,0.431c-0.098,0.127-0.278,0.217-0.503,0.306
		c-0.243,0.072-0.521,0.144-0.862,0.199l-1.008,0.162c-0.154,0.027-0.314,0.054-0.449,0.088c-0.144,0.039-0.271,0.073-0.387,0.119
		c-0.468,0.161-0.565,0.423-0.773,0.656l-2.319,2.866c-3.056,3.831-5.987,7.695-8.775,11.606c-1.394,1.953-2.751,3.921-4.045,5.898
		c-1.304,1.978-2.563,3.965-3.695,5.996"/>
	<path fill="#FFFFFF" d="M24.22,57c-0.782-1.897-1.465-3.831-2.122-5.765c-0.72-2.141-1.394-4.288-2.022-6.453
		c-0.1-0.326-0.189-0.659-0.279-0.98c-0.044-0.209-0.08-0.406-0.116-0.612c-0.432-2.401-0.729-4.792-0.908-7.192
		c-0.045-0.594-0.082-1.188-0.09-1.788c-0.009-0.604,0-1.194,0.026-1.798c0.072-1.206,0.225-2.4,0.468-3.596
		c0.243-1.206,0.567-2.403,0.899-3.607c0.323-1.204,0.674-2.398,0.971-3.604c0.143-0.594,0.287-1.195,0.413-1.798
		c0.126-0.603,0.243-1.195,0.342-1.797l0.566-3.606l0.566-3.604c0.189-1.196,0.36-2.391,0.54-3.596
		c0.351-2.4,0.693-4.683,1.007-7.201h0.197c0.315,2.518,0.657,4.801,1.008,7.201c0.179,1.205,0.351,2.4,0.539,3.605l0.566,3.595
		l0.566,3.606c0.098,0.602,0.216,1.195,0.341,1.797c0.126,0.603,0.271,1.204,0.415,1.798c0.295,1.206,0.646,2.4,0.97,3.604
		c0.334,1.205,0.657,2.401,0.899,3.607c0.243,1.195,0.396,2.399,0.467,3.596c0.027,0.604,0.036,1.206,0.027,1.806
		c-0.009,0.593-0.037,1.198-0.09,1.799c-0.144,1.969-0.369,3.929-0.691,5.898c-0.262,0.951-0.531,1.912-0.809,2.868
		c-0.629,2.165-1.304,4.313-2.024,6.453c-0.701,2.067-1.43,4.127-2.292,6.158"/>
	<path fill="#FFFFFF" d="M24.284,57.654c-1.134-2.031-2.401-4.019-3.696-5.996c-1.303-1.978-2.651-3.945-4.045-5.898
		c-2.788-3.911-5.718-7.767-8.774-11.606l-2.321-2.866c-0.207-0.233-0.305-0.495-0.781-0.656c-0.108-0.046-0.234-0.08-0.378-0.119
		c-0.135-0.034-0.296-0.061-0.458-0.088l-0.998-0.162c-0.342-0.056-0.621-0.117-0.864-0.199c-0.233-0.089-0.404-0.179-0.504-0.306
		c-0.107-0.115-0.143-0.251-0.018-0.431c0.108-0.17,0.351-0.387,0.656-0.62c0.279-0.225,0.612-0.458,0.836-0.667
		c0.225-0.214,0.341-0.396,0.351-0.54c-0.01-0.296-0.01-0.584-0.027-0.871c-0.027-0.576-0.09-1.143-0.179-1.708
		c-0.18-1.114-0.504-2.194-0.836-3.281c-0.152-0.54-0.324-1.079-0.459-1.618c-0.143-0.549-0.27-1.098-0.377-1.655
		c-0.107-0.558-0.189-1.115-0.287-1.681c-0.09-0.557-0.181-1.114-0.262-1.672C0.513,12.767,0.215,10.51,0,8.226l0.189-0.054
		c1.807,1.843,3.524,3.704,5.206,5.574c0.423,0.469,0.836,0.945,1.25,1.412c0.413,0.467,0.835,0.935,1.231,1.412
		c0.404,0.477,0.782,0.953,1.141,1.439c0.369,0.486,0.71,0.979,1.061,1.465c0.684,0.98,1.368,1.96,2.203,2.895
		c0.414,0.468,0.864,0.936,1.331,1.384c0.242,0.226,0.494,0.451,0.736,0.675c0.136,0.107,0.378,0.188,0.738,0.232
		c0.342,0.055,0.8,0.074,1.214,0.11c0.432,0.025,0.799,0.062,1.033,0.143c0.243,0.082,0.342,0.198,0.36,0.341
		c0.026,0.145-0.018,0.297-0.125,0.477c-0.118,0.179-0.271,0.369-0.486,0.575l-0.621,0.611c-0.089,0.1-0.189,0.198-0.261,0.288
		c-0.09,0.1-0.144,0.19-0.198,0.271c-0.215,0.359-0.063,0.611-0.018,0.89l0.719,3.309c0.925,4.072,1.941,8.117,3.092,12.128
		c0.414,2.194,0.962,4.368,1.655,6.563c0.387,1.204,0.809,2.345,1.304,3.542c0.441,1.053,0.89,2.157,1.465,3.094"/>
</g>
</svg>
